<?xml version="1.0" encoding="UTF-8"?><svg id="Layer_2" xmlns="http://www.w3.org/2000/svg" width="574.48" height="225.02" viewBox="0 0 574.48 225.02"><defs><style>.cls-1{fill:none;}.cls-1,.cls-2,.cls-3,.cls-4{stroke-width:0px;}.cls-5{font-family:BethEllen-Regular, 'Beth Ellen';font-size:76.87px;}.cls-6{fill:#f35e3e;stroke:#000;stroke-miterlimit:10;stroke-width:3px;}.cls-3{fill:#8c6239;}.cls-4{fill:#fff;}</style></defs><g id="Layer_1-2"><path class="cls-2" d="m161.19,68.57c5.46,1.42,11.54,2.53,17.28,4.58,26.57,9.49,34.14,38.92,15.73,60.58-7.56,8.9-17.47,13.74-28.71,15.85-3.88.73-5.15,2.2-5.18,6.14-.09,11.98.08,24.02-1.17,35.9-1.51,14.39-9.89,22.48-24.25,25.27-14.02,2.73-27.98,6.21-42.14,7.71-18.1,1.92-35.65-3.31-53.2-7.02-5.74-1.21-8.71-5.91-9.95-11.45-8.64-38.82-16.05-77.86-21.22-117.32C5.91,70.03,2.66,51.34.07,32.56c-.32-2.34.56-5.34,1.92-7.33C10.79,12.35,23.8,5.97,38.6,3.07c33.71-6.6,66.36-1.97,98.89,8.22,19.43,6.09,21.8,14.1,23.57,33.76.7,7.72.11,15.56.11,23.52ZM6.03,40.1c.14,2.44.11,4.59.41,6.69,2.88,20.08,5.42,40.23,8.83,60.22,5.39,31.61,11.32,63.14,17.14,94.68,1.5,8.1,6.07,12.93,13.66,13.94,12.7,1.68,25.45,2.96,38.2,4.24,19.88,1.99,38.15-4.01,56.11-11.52,11.99-5.01,15.4-9.92,15.46-22.75.24-48.15.45-96.29.67-144.44,0-1.76,0-3.53,0-5.26-5.36,2.47-10.05,5.5-15.18,6.86-33.65,8.94-67.77,9.57-102.01,4.36-10.96-1.67-21.74-4.54-33.28-7.02ZM69.48,3.75c-2.88.2-8.47,0-13.81,1.07-11.04,2.22-22.29,4.21-32.78,8.1-6.22,2.3-11.61,7.58-16.54,12.38-4.11,4.01-2.43,7.69,3.24,8.56,1.7.26,3.67.05,5.29-.56,43.56-16.17,86.88-18.91,129.89,1.96,1.07.52,3.03.44,3.98-.22,4.84-3.32,4.94-9.58.21-12.88-2.85-1.99-5.84-4.02-9.06-5.21-21.86-8.08-44.39-12.92-70.41-13.2ZM16.24,38.79c41.34,9,81.65,10.29,122.82.31-24.2-19.08-93.74-17.97-122.82-.31Zm183.43,68.63c-.43-20.86-13.56-31.73-33.49-33.82-2.69-.28-5.8-.4-5.9,3.48-.1,3.71-1.84,8.21,4.14,9.64,3.52.84,7.03,2.12,10.22,3.82,14.69,7.83,17.81,25.52,6.06,37.16-4.34,4.3-10.51,6.73-15.71,10.21-1.62,1.08-2.79,2.84-4.16,4.29,1.94.95,3.85,1.96,5.83,2.79.54.23,1.31-.05,1.97-.18,17.24-3.26,31.13-20.01,31.04-37.4Zm-38.55-16.33v42.49c13.13-1.61,23.2-12.25,22.38-23.33-.81-10.9-10.73-19.72-22.38-19.16Z"/><path class="cls-4" d="m6.03,40.1c11.55,2.47,22.32,5.35,33.28,7.02,34.25,5.2,68.37,4.58,102.01-4.36,5.13-1.36,9.82-4.39,15.18-6.86,0,1.73,0,3.49,0,5.26-.22,48.15-.43,96.29-.67,144.44-.06,12.83-3.47,17.74-15.46,22.75-17.96,7.5-36.23,13.5-56.11,11.52-12.75-1.27-25.5-2.56-38.2-4.24-7.59-1-12.17-5.83-13.66-13.94-5.82-31.54-11.75-63.06-17.14-94.68-3.41-20-5.95-40.14-8.83-60.22-.3-2.1-.27-4.25-.41-6.69Zm85.42,135c.68-.03,1.37-.06,2.05-.09,1.14-2.63,2.84-5.15,3.35-7.9,3.76-20.51,7.58-41.02,10.73-61.63,1.16-7.62,1.04-15.53.58-23.26-.25-4.26-4.06-5.47-7.28-2.54-2.75,2.5-5.1,5.7-6.85,9-1.96,3.69-3.06,7.83-4.65,12.08-4.34-6.56-8.15-13.01-12.72-18.87-1.69-2.17-5.53-4.48-7.7-3.94-2.08.52-4.67,4.71-4.56,7.17.31,7.01,1.1,14.21,3.11,20.91,6.27,20.97,13.13,41.77,19.93,62.57.77,2.35,2.65,4.34,4.02,6.5Z"/><path class="cls-4" d="m69.48,3.75c26.02.28,48.55,5.12,70.41,13.2,3.23,1.19,6.21,3.22,9.06,5.21,4.73,3.3,4.63,9.56-.21,12.88-.96.66-2.91.74-3.98.22-43.01-20.88-86.33-18.13-129.89-1.96-1.62.6-3.59.82-5.29.56-5.67-.87-7.35-4.55-3.24-8.56,4.92-4.8,10.32-10.07,16.54-12.38,10.49-3.88,21.74-5.87,32.78-8.1,5.34-1.08,10.94-.87,13.81-1.07Z"/><path class="cls-3" d="m16.24,38.79c29.08-17.66,98.62-18.77,122.82.31-41.17,9.98-81.48,8.69-122.82-.31Z"/><path class="cls-4" d="m199.68,107.41c.09,17.4-13.8,34.14-31.04,37.4-.65.12-1.43.4-1.97.18-1.99-.83-3.9-1.85-5.83-2.79,1.37-1.45,2.54-3.2,4.16-4.29,5.2-3.49,11.37-5.91,15.71-10.21,11.75-11.64,8.63-29.32-6.06-37.16-3.19-1.7-6.7-2.98-10.22-3.82-5.98-1.43-4.24-5.93-4.14-9.64.1-3.88,3.2-3.76,5.9-3.48,19.93,2.09,33.06,12.96,33.49,33.82Z"/><path class="cls-1" d="m161.13,91.08c11.65-.56,21.56,8.26,22.38,19.16.83,11.08-9.25,21.72-22.38,23.33v-42.49Z"/><path class="cls-6" d="m91.46,175.1c-1.37-2.16-3.25-4.15-4.02-6.5-6.8-20.81-13.66-41.6-19.93-62.57-2-6.7-2.8-13.9-3.11-20.91-.11-2.47,2.48-6.66,4.56-7.17,2.17-.54,6.01,1.77,7.7,3.94,4.57,5.86,8.38,12.31,12.72,18.87,1.59-4.25,2.69-8.39,4.65-12.08,1.76-3.3,4.1-6.5,6.85-9,3.22-2.93,7.02-1.72,7.28,2.54.46,7.73.59,15.64-.58,23.26-3.15,20.61-6.97,41.12-10.73,61.63-.5,2.75-2.2,5.27-3.35,7.9-.68.03-1.37.06-2.05.09Z"/><text class="cls-5" transform="translate(243.8 144.62)"><tspan x="0" y="0">Claycafe</tspan></text></g></svg>